<svg width="170" height="20" viewBox="0 0 170 20" fill="none" xmlns="http://www.w3.org/2000/svg">
<g id="socials">
<g id="telegram_fff">
<circle id="Ellipse 27" cx="160" cy="10" r="9.35" stroke="white" stroke-width="1.3"/>
<path id="Vector" d="M161.603 9.733L159.357 8.685C159.161 8.594 159 8.696 159 8.913V10.887C159 11.104 159.161 11.206 159.357 11.115L161.602 10.067C161.799 9.975 161.799 9.825 161.603 9.733ZM160 13.8C155.086 13.8 155 13.357 155 9.9C155 6.443 155.086 6 160 6C164.914 6 165 6.443 165 9.9C165 13.357 164.914 13.8 160 13.8Z" fill="white"/>
</g>
<g id="mail_fff">
<path id="Vector_2" d="M9.99781 0C4.51913 0 0.035774 4.45778 0.000227016 9.93778C-0.0175465 12.6089 1.00887 15.1289 2.88397 17.0267C4.75908 18.9289 7.26514 19.9822 9.9356 20C9.9356 20 9.99781 20 10.0023 20C15.4809 20 19.9643 15.5422 19.9998 10.0622C20.0309 4.55111 15.5742 0.0355556 9.99781 0ZM17.8537 13.6089L13.8858 10L17.8581 6.39111C18.3736 7.50667 18.6579 8.74667 18.6491 10.0533C18.6402 11.32 18.3558 12.5244 17.8537 13.6089ZM10.0511 1.34667C13.0415 1.36444 15.672 2.90667 17.2138 5.23111L9.99781 11.7911L7.50064 9.52L2.79066 5.24C4.3414 2.89778 7.01187 1.34667 10.0511 1.34667ZM2.14193 6.39111L6.10986 10L2.13304 13.6133C1.60873 12.48 1.33768 11.2311 1.34657 9.94667C1.35546 8.68 1.63983 7.47556 2.14193 6.39111ZM9.99781 18.6533H9.94005C7.62949 18.64 5.46557 17.7244 3.8393 16.08C3.4394 15.6756 3.08393 15.2356 2.77289 14.7689L7.06519 10.8711L9.56236 13.1378C9.68678 13.2489 9.84229 13.3067 9.99781 13.3067C10.1533 13.3067 10.3088 13.2489 10.4333 13.1378L12.9304 10.8711L17.2138 14.7644C15.6587 17.1022 13.0015 18.6533 9.99781 18.6533Z" fill="white"/>
</g>
<g id="facebook_fff">
<path id="Vector_3" d="M58.6955 6.937V8.314H57.6875V9.997H58.6955V15H60.7675V9.997H62.1575C62.1575 9.997 62.2885 9.19 62.3515 8.307H60.7755V7.157C60.7755 6.984 61.0015 6.753 61.2255 6.753H62.3535V5H60.8185C58.6445 5 58.6955 6.685 58.6955 6.937Z" fill="white"/>
<circle id="Ellipse 27_2" cx="60" cy="10" r="9.35" stroke="white" stroke-width="1.3"/>
</g>
<g id="insta_fff">
<path id="Vector_4" d="M115.579 4.42128C115.778 4.62103 115.891 4.89196 115.891 5.17447C115.891 5.45697 115.778 5.7279 115.579 5.92766C115.379 6.12742 115.108 6.23964 114.826 6.23964C114.543 6.23964 114.272 6.12742 114.072 5.92766C114.025 5.87675 113.981 5.82273 113.94 5.76596C113.901 5.70726 113.868 5.64448 113.843 5.57872C113.816 5.51559 113.796 5.45003 113.783 5.38298C113.777 5.31361 113.777 5.24383 113.783 5.17447C113.785 4.89258 113.896 4.62246 114.094 4.42128C114.144 4.37274 114.198 4.3286 114.255 4.28936C114.371 4.21159 114.501 4.15804 114.638 4.13191C114.807 4.10123 114.98 4.1115 115.144 4.16185C115.307 4.21221 115.457 4.30119 115.579 4.42128ZM114.115 10C114.115 10.8138 113.874 11.6094 113.421 12.2861C112.969 12.9628 112.327 13.4902 111.575 13.8017C110.823 14.1131 109.995 14.1946 109.197 14.0358C108.399 13.877 107.666 13.4851 107.09 12.9097C106.515 12.3342 106.123 11.601 105.964 10.8028C105.805 10.0046 105.887 9.17719 106.198 8.4253C106.51 7.6734 107.037 7.03074 107.714 6.57859C108.391 6.12644 109.186 5.8851 110 5.8851C111.091 5.88623 112.137 6.32013 112.908 7.09157C113.68 7.86302 114.114 8.90901 114.115 10ZM112.838 10C112.838 9.43863 112.672 8.88988 112.36 8.42312C112.048 7.95637 111.605 7.59258 111.086 7.37775C110.568 7.16293 109.997 7.10672 109.446 7.21624C108.896 7.32575 108.39 7.59608 107.993 7.99302C107.596 8.38996 107.326 8.8957 107.216 9.44627C107.107 9.99685 107.163 10.5675 107.378 11.0862C107.593 11.6048 107.956 12.0481 108.423 12.36C108.89 12.6718 109.439 12.8383 110 12.8383C110.753 12.8383 111.475 12.5393 112.007 12.007C112.539 11.4747 112.838 10.7528 112.838 10ZM120 10C120 11.9778 119.414 13.9112 118.315 15.5557C117.216 17.2002 115.654 18.4819 113.827 19.2388C112 19.9957 109.989 20.1937 108.049 19.8078C106.109 19.422 104.327 18.4696 102.929 17.0711C101.53 15.6725 100.578 13.8907 100.192 11.9509C99.8063 10.0111 100.004 8.00042 100.761 6.17316C101.518 4.3459 102.8 2.78412 104.444 1.6853C106.089 0.58649 108.022 0 110 0C112.651 0.0022537 115.194 1.05655 117.069 2.93142C118.943 4.8063 119.998 7.34852 120 10ZM118.723 10C118.723 8.27467 118.212 6.58809 117.253 5.15353C116.295 3.71898 114.932 2.60088 113.338 1.94062C111.744 1.28037 109.99 1.10762 108.298 1.44421C106.606 1.78081 105.052 2.61163 103.832 3.83162C102.612 5.05161 101.781 6.60597 101.444 8.29815C101.108 9.99032 101.28 11.7443 101.941 13.3383C102.601 14.9323 103.719 16.2947 105.154 17.2532C106.588 18.2118 108.275 18.7234 110 18.7234C112.313 18.72 114.529 17.7999 116.165 16.1646C117.8 14.5294 118.72 12.3126 118.723 10Z" fill="white"/>
</g>
</g>
</svg>
